<svg width="77" height="22" viewBox="0 0 77 22" fill="none" xmlns="http://www.w3.org/2000/svg">
<path d="M14.5078 6.60156H11.0859C11.0234 6.15885 10.8958 5.76562 10.7031 5.42187C10.5104 5.07292 10.263 4.77604 9.96094 4.53125C9.65885 4.28646 9.3099 4.09896 8.91406 3.96875C8.52344 3.83854 8.09896 3.77344 7.64063 3.77344C6.8125 3.77344 6.09115 3.97917 5.47656 4.39062C4.86198 4.79687 4.38542 5.39062 4.04688 6.17188C3.70833 6.94792 3.53906 7.89062 3.53906 9C3.53906 10.1406 3.70833 11.099 4.04688 11.875C4.39063 12.651 4.86979 13.237 5.48437 13.6328C6.09896 14.0286 6.8099 14.2266 7.61719 14.2266C8.07031 14.2266 8.48958 14.1667 8.875 14.0469C9.26563 13.9271 9.61198 13.7526 9.91406 13.5234C10.2161 13.2891 10.4661 13.0052 10.6641 12.6719C10.8672 12.3385 11.0078 11.9583 11.0859 11.5312L14.5078 11.5469C14.4193 12.2812 14.1979 12.9896 13.8438 13.6719C13.4948 14.349 13.0234 14.9557 12.4297 15.4922C11.8411 16.0234 11.138 16.4453 10.3203 16.7578C9.50781 17.0651 8.58854 17.2187 7.5625 17.2187C6.13542 17.2187 4.85938 16.8958 3.73438 16.25C2.61458 15.6042 1.72917 14.6693 1.07812 13.4453C0.432292 12.2214 0.109375 10.7396 0.109375 9C0.109375 7.25521 0.4375 5.77083 1.09375 4.54688C1.75 3.32292 2.64063 2.39062 3.76563 1.75C4.89063 1.10417 6.15625 0.781249 7.5625 0.781249C8.48958 0.781249 9.34896 0.911458 10.1406 1.17187C10.9375 1.43229 11.6432 1.8125 12.2578 2.3125C12.8724 2.80729 13.3724 3.41406 13.7578 4.13281C14.1484 4.85156 14.3984 5.67448 14.5078 6.60156ZM16.8711 17V5H20.0977V7.09375H20.2227C20.4414 6.34896 20.8086 5.78646 21.3242 5.40625C21.8398 5.02083 22.4336 4.82812 23.1055 4.82812C23.2721 4.82812 23.4518 4.83854 23.6445 4.85937C23.8372 4.88021 24.0065 4.90885 24.1523 4.94531V7.89844C23.9961 7.85156 23.7799 7.8099 23.5039 7.77344C23.2279 7.73698 22.9753 7.71875 22.7461 7.71875C22.2565 7.71875 21.819 7.82552 21.4336 8.03906C21.0534 8.2474 20.7513 8.53906 20.5273 8.91406C20.3086 9.28906 20.1992 9.72135 20.1992 10.2109V17H16.8711ZM30.7832 17.2344C29.5488 17.2344 28.4863 16.9844 27.5957 16.4844C26.7103 15.9792 26.028 15.2656 25.5488 14.3437C25.0697 13.4167 24.8301 12.3203 24.8301 11.0547C24.8301 9.82031 25.0697 8.73698 25.5488 7.80469C26.028 6.8724 26.7025 6.14583 27.5723 5.625C28.4473 5.10417 29.4733 4.84375 30.6504 4.84375C31.4421 4.84375 32.179 4.97135 32.8613 5.22656C33.5488 5.47656 34.1478 5.85417 34.6582 6.35937C35.1738 6.86458 35.5749 7.5 35.8613 8.26562C36.1478 9.02604 36.291 9.91667 36.291 10.9375V11.8516H26.1582V9.78906H33.1582C33.1582 9.3099 33.054 8.88542 32.8457 8.51563C32.6374 8.14583 32.3483 7.85677 31.9785 7.64844C31.6139 7.4349 31.1895 7.32812 30.7051 7.32812C30.1999 7.32812 29.752 7.44531 29.3613 7.67969C28.9759 7.90885 28.6738 8.21875 28.4551 8.60937C28.2363 8.99479 28.1243 9.42448 28.1191 9.89844V11.8594C28.1191 12.4531 28.2285 12.9661 28.4473 13.3984C28.6712 13.8307 28.9863 14.1641 29.3926 14.3984C29.7988 14.6328 30.2806 14.75 30.8379 14.75C31.2077 14.75 31.5462 14.6979 31.8535 14.5938C32.1608 14.4896 32.4238 14.3333 32.6426 14.125C32.8613 13.9167 33.028 13.6615 33.1426 13.3594L36.2207 13.5625C36.0645 14.3021 35.7441 14.9479 35.2598 15.5C34.7806 16.0469 34.1608 16.474 33.4004 16.7813C32.6452 17.0833 31.7728 17.2344 30.7832 17.2344ZM41.8848 17.2266C41.1191 17.2266 40.4368 17.0938 39.8379 16.8281C39.2389 16.5573 38.765 16.1589 38.416 15.6328C38.0723 15.1016 37.9004 14.4401 37.9004 13.6484C37.9004 12.9818 38.0228 12.4219 38.2676 11.9687C38.5124 11.5156 38.8457 11.151 39.2676 10.875C39.6895 10.599 40.1686 10.3906 40.7051 10.25C41.2467 10.1094 41.8145 10.0104 42.4082 9.95312C43.1061 9.88021 43.6686 9.8125 44.0957 9.75C44.5228 9.68229 44.8327 9.58333 45.0254 9.45312C45.2181 9.32292 45.3145 9.13021 45.3145 8.875V8.82812C45.3145 8.33333 45.1582 7.95052 44.8457 7.67969C44.5384 7.40885 44.1009 7.27344 43.5332 7.27344C42.9342 7.27344 42.4577 7.40625 42.1035 7.67187C41.7493 7.93229 41.515 8.26042 41.4004 8.65625L38.3223 8.40625C38.4785 7.67708 38.7858 7.04687 39.2441 6.51562C39.7025 5.97917 40.2936 5.56771 41.0176 5.28125C41.7467 4.98958 42.5905 4.84375 43.5488 4.84375C44.2155 4.84375 44.8535 4.92187 45.4629 5.07812C46.0775 5.23437 46.6217 5.47656 47.0957 5.80469C47.5749 6.13281 47.9525 6.55469 48.2285 7.07031C48.5046 7.58073 48.6426 8.19271 48.6426 8.90625V17H45.4863V15.3359H45.3926C45.1999 15.7109 44.9421 16.0417 44.6191 16.3281C44.2962 16.6094 43.9082 16.8307 43.4551 16.9922C43.002 17.1484 42.4785 17.2266 41.8848 17.2266ZM42.8379 14.9297C43.3275 14.9297 43.7598 14.8333 44.1348 14.6406C44.5098 14.4427 44.804 14.1771 45.0176 13.8438C45.2311 13.5104 45.3379 13.1328 45.3379 12.7109V11.4375C45.2337 11.5052 45.0905 11.5677 44.9082 11.625C44.7311 11.6771 44.5306 11.7266 44.3066 11.7734C44.0827 11.8151 43.8587 11.8542 43.6348 11.8906C43.4108 11.9219 43.2077 11.9505 43.0254 11.9766C42.6348 12.0339 42.2936 12.125 42.002 12.25C41.7103 12.375 41.4837 12.5443 41.3223 12.7578C41.1608 12.9661 41.0801 13.2266 41.0801 13.5391C41.0801 13.9922 41.2441 14.3385 41.5723 14.5781C41.9056 14.8125 42.3275 14.9297 42.8379 14.9297ZM51.2246 17V5H54.5527V17H51.2246ZM52.8965 3.45312C52.4017 3.45312 51.9772 3.28906 51.623 2.96094C51.2741 2.6276 51.0996 2.22917 51.0996 1.76562C51.0996 1.30729 51.2741 0.914062 51.623 0.585938C51.9772 0.252604 52.4017 0.0859367 52.8965 0.0859367C53.3913 0.0859367 53.8132 0.252604 54.1621 0.585938C54.5163 0.914062 54.6934 1.30729 54.6934 1.76562C54.6934 2.22917 54.5163 2.6276 54.1621 2.96094C53.8132 3.28906 53.3913 3.45312 52.8965 3.45312ZM63.6719 5V7.5H56.2656V5H63.6719ZM57.9609 17V4.13281C57.9609 3.26302 58.1302 2.54167 58.4688 1.96875C58.8125 1.39583 59.2812 0.966145 59.875 0.679686C60.4688 0.393228 61.1432 0.249999 61.8984 0.249999C62.4089 0.249999 62.875 0.289062 63.2969 0.367187C63.724 0.445312 64.0417 0.515625 64.25 0.578125L63.6563 3.07812C63.526 3.03646 63.3646 2.9974 63.1719 2.96094C62.9844 2.92448 62.7917 2.90625 62.5938 2.90625C62.1042 2.90625 61.763 3.02083 61.5703 3.25C61.3776 3.47396 61.2813 3.78906 61.2813 4.19531V17H57.9609ZM67.7598 21.5C67.3379 21.5 66.9421 21.4661 66.5723 21.3984C66.2077 21.3359 65.9056 21.2552 65.666 21.1562L66.416 18.6719C66.8066 18.7917 67.1582 18.8568 67.4707 18.8672C67.7884 18.8776 68.0618 18.8047 68.291 18.6484C68.5254 18.4922 68.7155 18.2266 68.8613 17.8516L69.0566 17.3438L64.752 5H68.252L70.7363 13.8125H70.8613L73.3691 5H76.8926L72.2285 18.2969C72.0046 18.9427 71.6999 19.5052 71.3145 19.9844C70.9342 20.4688 70.4525 20.8411 69.8691 21.1016C69.2858 21.3672 68.5827 21.5 67.7598 21.5Z" fill="url(#paint0_linear_583_23292)"/>
<defs>
<linearGradient id="paint0_linear_583_23292" x1="-1" y1="-5" x2="16.633" y2="44.7503" gradientUnits="userSpaceOnUse">
<stop stop-color="#97ABFF"/>
<stop offset="1" stop-color="#123597"/>
</linearGradient>
</defs>
</svg>
