<svg width="31" height="31" viewBox="0 0 31 31" fill="none" xmlns="http://www.w3.org/2000/svg">
<rect x="3" y="3" width="25" height="25" rx="12.5" fill="#FEF0C7"/>
<g clip-path="url(#clip0_583_23308)">
<path d="M15.5003 13.4167V15.5M15.5003 17.5833H15.5055M14.6096 10.7396L10.1982 18.1042C10.1072 18.2617 10.0591 18.4403 10.0586 18.6222C10.0581 18.804 10.1052 18.9829 10.1953 19.1409C10.2854 19.2989 10.4152 19.4306 10.572 19.5228C10.7288 19.6151 10.9069 19.6647 11.0888 19.6667H19.9117C20.0936 19.6647 20.2718 19.6151 20.4285 19.5228C20.5853 19.4306 20.7152 19.2989 20.8053 19.1409C20.8953 18.9829 20.9425 18.804 20.9419 18.6222C20.9414 18.4403 20.8933 18.2617 20.8024 18.1042L16.3909 10.7396C16.298 10.5865 16.1673 10.46 16.0113 10.3721C15.8553 10.2843 15.6793 10.2382 15.5003 10.2382C15.3212 10.2382 15.1452 10.2843 14.9892 10.3721C14.8332 10.46 14.7025 10.5865 14.6096 10.7396Z" stroke="#FDB022" stroke-width="1.04167" stroke-linecap="round" stroke-linejoin="round"/>
</g>
<rect x="3" y="3" width="25" height="25" rx="12.5" stroke="#FFFAEB" stroke-width="4.16667"/>
<defs>
<clipPath id="clip0_583_23308">
<rect width="12.5" height="12.5" fill="white" transform="translate(9.25 9.25)"/>
</clipPath>
</defs>
</svg>
